<?xml version="1.0" encoding="UTF-8" standalone="no"?><svg xmlns="http://www.w3.org/2000/svg" xmlns:xlink="http://www.w3.org/1999/xlink" clip-rule="evenodd" stroke-miterlimit="4.00" viewBox="0 0 1920 1080"><desc>SVG generated by Keynote</desc><defs></defs><g transform="matrix(1.00, 0.00, -0.00, -1.00, 0.0, 1080.0)"><path d="M 0.0 1080.0 L 1920.0 1080.0 L 1920.0 0.0 L 0.0 0.0 Z M 0.0 1080.0 " fill="#FEFFFF"></path><image xlink:href="../../CA20046F-E900-4AD2-B103-C166F6EB13A0/assets/9E2108EAAF2F920EA652701B12C4AC16.png" width="1298.00" height="1132.00" transform="matrix(1.00, 0.00, -0.00, -1.00, 661.8, 1081.5)" opacity="0.50"></image><path d="M 664.8 1080.5 L 1956.6 1080.5 L 1956.6 -45.8 L 664.8 -45.8 Z M 664.8 1080.5 " fill="#4E504E"></path><g><clipPath id="clip-20"><path d="M 72.0 107.0 L 127.0 107.0 L 127.0 52.0 L 72.0 52.0 Z M 72.3 107.4 "></path></clipPath><g clip-path="url(#clip-20)"><g><clipPath id="clip-21"><path d="M 72.0 107.0 L 127.0 107.0 L 127.0 52.0 L 72.0 52.0 Z M 72.0 107.0 "></path></clipPath><g clip-path="url(#clip-21)"><g><clipPath id="clip-22"><path d="M 72.0 52.0 L 127.0 52.0 L 127.0 107.0 L 72.0 107.0 Z M 72.0 52.0 "></path></clipPath><g clip-path="url(#clip-22)"><path d="M 120.9 98.5 L 101.5 98.5 L 99.8 95.1 L 120.9 95.1 C 122.4 95.1 123.6 93.7 123.6 92.2 L 123.6 65.0 C 123.6 63.4 122.4 62.2 120.9 62.2 L 106.9 62.2 L 105.0 58.8 L 114.1 58.8 L 119.2 52.0 L 119.9 52.0 L 119.3 58.8 L 120.9 58.8 C 124.3 58.8 127.0 61.6 127.0 65.0 L 127.0 92.2 C 127.0 95.6 124.3 98.5 120.9 98.5 " fill="#DADBDD"></path><path d="M 89.2 62.9 C 89.2 64.3 88.1 65.4 86.8 65.4 C 85.4 65.4 84.3 64.3 84.3 62.9 C 84.3 61.5 85.4 60.4 86.8 60.4 C 88.1 60.4 89.2 61.5 89.2 62.9 " fill="#DADBDD"></path><path d="M 85.4 57.6 C 85.4 58.5 84.7 59.3 83.8 59.3 C 82.9 59.3 82.2 58.5 82.2 57.6 C 82.2 56.7 82.9 56.0 83.8 56.0 C 84.7 56.0 85.4 56.7 85.4 57.6 " fill="#DADBDD"></path><path d="M 100.4 89.6 L 89.8 89.6 L 89.8 87.3 L 93.7 87.3 L 93.7 74.0 L 96.5 74.0 L 96.5 87.3 L 100.4 87.3 Z M 100.4 89.6 " fill="#F16D21"></path><path d="M 106.6 89.9 C 110.3 89.9 111.6 86.9 111.6 86.9 L 109.5 85.8 C 109.5 85.8 108.7 87.6 106.6 87.6 C 104.8 87.6 103.9 86.6 103.9 85.6 C 103.9 82.1 112.1 84.3 112.1 78.6 C 112.1 76.2 110.0 73.8 106.5 73.8 C 103.7 73.8 101.7 75.8 100.9 77.0 L 103.3 78.3 C 103.3 78.3 104.6 76.3 106.7 76.3 C 108.2 76.3 109.3 77.1 109.3 78.5 C 109.3 82.1 101.2 79.7 101.2 85.5 C 101.2 88.2 103.6 89.9 106.6 89.9 " fill="#F16D21"></path><path d="M 100.3 65.9 C 96.7 65.9 93.2 67.7 91.2 70.7 L 90.5 71.7 L 89.3 71.4 C 88.4 71.1 87.5 71.0 86.6 71.0 C 80.4 71.0 75.4 76.1 75.4 82.3 C 75.4 85.2 76.5 88.0 78.5 90.1 C 80.5 92.2 83.2 93.4 86.0 93.6 L 87.3 93.6 L 87.6 94.9 C 88.2 97.3 89.6 99.5 91.5 101.0 C 93.5 102.7 95.9 103.6 98.5 103.6 C 101.4 103.6 104.0 102.5 106.0 100.7 L 110.5 100.7 C 107.8 104.4 103.4 107.0 98.5 107.0 C 95.2 107.0 92.0 105.8 89.4 103.8 C 87.2 102.0 85.5 99.6 84.7 96.9 C 81.4 96.5 78.4 94.9 76.0 92.5 C 73.4 89.7 72.0 86.1 72.0 82.3 C 72.0 74.2 78.5 67.6 86.6 67.6 C 87.4 67.6 88.2 67.7 89.1 67.8 C 91.8 64.5 95.9 62.5 100.3 62.5 C 104.9 62.5 109.0 64.6 111.6 68.0 L 106.8 68.0 C 104.9 66.6 102.7 65.9 100.3 65.9 " fill="#DADBDD"></path></g></g></g></g></g></g><text xml:space="preserve" font-family="Gotham-Black" font-weight="bold" font-size="40.0" fill="#A6AAA8" transform="matrix(1.00, 0.00, -0.00, -1.00, 77.0, 956.0)">O</text><text xml:space="preserve" font-family="Gotham-Black" font-weight="bold" font-size="40.0" fill="#A6AAA8" transform="matrix(1.00, 0.00, -0.00, -1.00, 110.2, 956.0)">c</text><text xml:space="preserve" font-family="Gotham-Black" font-weight="bold" font-size="40.0" fill="#A6AAA8" transform="matrix(1.00, 0.00, -0.00, -1.00, 133.0, 956.0)">e</text><text xml:space="preserve" font-family="Gotham-Black" font-weight="bold" font-size="40.0" fill="#A6AAA8" transform="matrix(1.00, 0.00, -0.00, -1.00, 157.2, 956.0)">a</text><text xml:space="preserve" font-family="Gotham-Black" font-weight="bold" font-size="40.0" fill="#A6AAA8" transform="matrix(1.00, 0.00, -0.00, -1.00, 181.2, 956.0)">n</text><text xml:space="preserve" font-family="Gotham-Black" font-weight="bold" font-size="40.0" fill="#A6AAA8" transform="matrix(1.00, 0.00, -0.00, -1.00, 206.5, 956.0)"> </text><text xml:space="preserve" font-family="Gotham-Black" font-weight="bold" font-size="40.0" fill="#A6AAA8" transform="matrix(1.00, 0.00, -0.00, -1.00, 217.6, 956.0)">O</text><text xml:space="preserve" font-family="Gotham-Black" font-weight="bold" font-size="40.0" fill="#A6AAA8" transform="matrix(1.00, 0.00, -0.00, -1.00, 250.8, 956.0)">u</text><text xml:space="preserve" font-family="Gotham-Black" font-weight="bold" font-size="40.0" fill="#A6AAA8" transform="matrix(1.00, 0.00, -0.00, -1.00, 276.2, 956.0)">t</text><text xml:space="preserve" font-family="Gotham-Black" font-weight="bold" font-size="40.0" fill="#A6AAA8" transform="matrix(1.00, 0.00, -0.00, -1.00, 293.4, 956.0)">c</text><text xml:space="preserve" font-family="Gotham-Black" font-weight="bold" font-size="40.0" fill="#A6AAA8" transform="matrix(1.00, 0.00, -0.00, -1.00, 316.2, 956.0)">o</text><text xml:space="preserve" font-family="Gotham-Black" font-weight="bold" font-size="40.0" fill="#A6AAA8" transform="matrix(1.00, 0.00, -0.00, -1.00, 342.4, 956.0)">m</text><text xml:space="preserve" font-family="Gotham-Black" font-weight="bold" font-size="40.0" fill="#A6AAA8" transform="matrix(1.00, 0.00, -0.00, -1.00, 381.3, 956.0)">e</text><text xml:space="preserve" font-family="Gotham-Black" font-weight="bold" font-size="40.0" fill="#A6AAA8" transform="matrix(1.00, 0.00, -0.00, -1.00, 405.5, 956.0)">s</text><text xml:space="preserve" font-family="Gotham-Black" font-weight="bold" font-size="20.0" fill="#F3B53E" transform="matrix(1.00, 0.00, -0.00, -1.00, 77.0, 1008.0)">I</text><text xml:space="preserve" font-family="Gotham-Black" font-weight="bold" font-size="20.0" fill="#F3B53E" transform="matrix(1.00, 0.00, -0.00, -1.00, 83.5, 1008.0)">n</text><text xml:space="preserve" font-family="Gotham-Black" font-weight="bold" font-size="20.0" fill="#F3B53E" transform="matrix(1.00, 0.00, -0.00, -1.00, 96.2, 1008.0)">t</text><text xml:space="preserve" font-family="Gotham-Black" font-weight="bold" font-size="20.0" fill="#F3B53E" transform="matrix(1.00, 0.00, -0.00, -1.00, 104.8, 1008.0)">r</text><text xml:space="preserve" font-family="Gotham-Black" font-weight="bold" font-size="20.0" fill="#F3B53E" transform="matrix(1.00, 0.00, -0.00, -1.00, 113.4, 1008.0)">o</text><image xlink:href="875FAB0F7E228C32708E26B4C2B15CCD.png" width="1251.00" height="1039.00" transform="matrix(1.00, 0.00, -0.00, -1.00, 686.9, 1024.2)" opacity="0.70"></image><g><clipPath id="clip-23"><path d="M 690.0 1021.0 L 1933.0 1021.0 L 1933.0 -9.0 L 690.0 -9.0 Z M 689.9 1021.0 "></path></clipPath><g clip-path="url(#clip-23)"><image xlink:href="F2F1798D908BF7CA7C7810FD76B69F10.png" width="947.00" height="768.00" transform="matrix(1.25, 0.00, -0.00, -1.25, 701.0, 1021.0)"></image></g></g><path d="M 11.3 0.0 L 11.3 961.9 L 1197.1 961.9 L 1197.1 0.0 L 11.3 0.0 Z M 11.3 0.0 " fill="none" stroke="#F2F6F5" stroke-width="2.00" transform="matrix(1.00, 0.00, 0.00, -1.00, 689.9, 1021.0)"></path><text xml:space="preserve" font-family="Gotham-Book" font-size="25.0" fill="#52575F" transform="matrix(1.00, 0.00, -0.00, -1.00, 76.0, 549.0)">O</text><text xml:space="preserve" font-family="Gotham-Book" font-size="25.0" fill="#52575F" transform="matrix(1.00, 0.00, -0.00, -1.00, 97.2, 549.0)">c</text><text xml:space="preserve" font-family="Gotham-Book" font-size="25.0" fill="#52575F" transform="matrix(1.00, 0.00, -0.00, -1.00, 111.5, 549.0)">e</text><text xml:space="preserve" font-family="Gotham-Book" font-size="25.0" fill="#52575F" transform="matrix(1.00, 0.00, -0.00, -1.00, 126.3, 549.0)">a</text><text xml:space="preserve" font-family="Gotham-Book" font-size="25.0" fill="#52575F" transform="matrix(1.00, 0.00, -0.00, -1.00, 140.8, 549.0)">n</text><text xml:space="preserve" font-family="Gotham-Book" font-size="25.0" fill="#52575F" transform="matrix(1.00, 0.00, -0.00, -1.00, 156.2, 549.0)"> </text><text xml:space="preserve" font-family="Gotham-Book" font-size="25.0" fill="#52575F" transform="matrix(1.00, 0.00, -0.00, -1.00, 163.7, 549.0)">O</text><text xml:space="preserve" font-family="Gotham-Book" font-size="25.0" fill="#52575F" transform="matrix(1.00, 0.00, -0.00, -1.00, 185.0, 549.0)">u</text><text xml:space="preserve" font-family="Gotham-Book" font-size="25.0" fill="#52575F" transform="matrix(1.00, 0.00, -0.00, -1.00, 200.4, 549.0)">t</text><text xml:space="preserve" font-family="Gotham-Book" font-size="25.0" fill="#52575F" transform="matrix(1.00, 0.00, -0.00, -1.00, 210.5, 549.0)">c</text><text xml:space="preserve" font-family="Gotham-Book" font-size="25.0" fill="#52575F" transform="matrix(1.00, 0.00, -0.00, -1.00, 224.7, 549.0)">o</text><text xml:space="preserve" font-family="Gotham-Book" font-size="25.0" fill="#52575F" transform="matrix(1.00, 0.00, -0.00, -1.00, 240.9, 549.0)">m</text><text xml:space="preserve" font-family="Gotham-Book" font-size="25.0" fill="#52575F" transform="matrix(1.00, 0.00, -0.00, -1.00, 264.7, 549.0)">e</text><text xml:space="preserve" font-family="Gotham-Book" font-size="25.0" fill="#52575F" transform="matrix(1.00, 0.00, -0.00, -1.00, 279.5, 549.0)">s</text><text xml:space="preserve" font-family="Gotham-Book" font-size="25.0" fill="#52575F" transform="matrix(1.00, 0.00, -0.00, -1.00, 291.9, 549.0)"> </text><text xml:space="preserve" font-family="Gotham-Book" font-size="25.0" fill="#52575F" transform="matrix(1.00, 0.00, -0.00, -1.00, 299.4, 549.0)">d</text><text xml:space="preserve" font-family="Gotham-Book" font-size="25.0" fill="#52575F" transform="matrix(1.00, 0.00, -0.00, -1.00, 316.0, 549.0)">e</text><text xml:space="preserve" font-family="Gotham-Book" font-size="25.0" fill="#52575F" transform="matrix(1.00, 0.00, -0.00, -1.00, 330.8, 549.0)">l</text><text xml:space="preserve" font-family="Gotham-Book" font-size="25.0" fill="#52575F" transform="matrix(1.00, 0.00, -0.00, -1.00, 337.4, 549.0)">i</text><text xml:space="preserve" font-family="Gotham-Book" font-size="25.0" fill="#52575F" transform="matrix(1.00, 0.00, -0.00, -1.00, 344.0, 549.0)">v</text><text xml:space="preserve" font-family="Gotham-Book" font-size="25.0" fill="#52575F" transform="matrix(1.00, 0.00, -0.00, -1.00, 358.6, 549.0)">e</text><text xml:space="preserve" font-family="Gotham-Book" font-size="25.0" fill="#52575F" transform="matrix(1.00, 0.00, -0.00, -1.00, 373.4, 549.0)">r</text><text xml:space="preserve" font-family="Gotham-Book" font-size="25.0" fill="#52575F" transform="matrix(1.00, 0.00, -0.00, -1.00, 383.6, 549.0)">s</text><text xml:space="preserve" font-family="Gotham-Book" font-size="25.0" fill="#52575F" transform="matrix(1.00, 0.00, -0.00, -1.00, 396.0, 549.0)"> </text><text xml:space="preserve" font-family="Gotham-Book" font-size="25.0" fill="#52575F" transform="matrix(1.00, 0.00, -0.00, -1.00, 403.5, 549.0)">t</text><text xml:space="preserve" font-family="Gotham-Book" font-size="25.0" fill="#52575F" transform="matrix(1.00, 0.00, -0.00, -1.00, 413.6, 549.0)">r</text><text xml:space="preserve" font-family="Gotham-Book" font-size="25.0" fill="#52575F" transform="matrix(1.00, 0.00, -0.00, -1.00, 423.7, 549.0)">a</text><text xml:space="preserve" font-family="Gotham-Book" font-size="25.0" fill="#52575F" transform="matrix(1.00, 0.00, -0.00, -1.00, 438.2, 549.0)">n</text><text xml:space="preserve" font-family="Gotham-Book" font-size="25.0" fill="#52575F" transform="matrix(1.00, 0.00, -0.00, -1.00, 453.6, 549.0)">s</text><text xml:space="preserve" font-family="Gotham-Book" font-size="25.0" fill="#52575F" transform="matrix(1.00, 0.00, -0.00, -1.00, 466.1, 549.0)">l</text><text xml:space="preserve" font-family="Gotham-Book" font-size="25.0" fill="#52575F" transform="matrix(1.00, 0.00, -0.00, -1.00, 472.6, 549.0)">a</text><text xml:space="preserve" font-family="Gotham-Book" font-size="25.0" fill="#52575F" transform="matrix(1.00, 0.00, -0.00, -1.00, 487.1, 549.0)">t</text><text xml:space="preserve" font-family="Gotham-Book" font-size="25.0" fill="#52575F" transform="matrix(1.00, 0.00, -0.00, -1.00, 497.2, 549.0)">e</text><text xml:space="preserve" font-family="Gotham-Book" font-size="25.0" fill="#52575F" transform="matrix(1.00, 0.00, -0.00, -1.00, 512.0, 549.0)">d</text><text xml:space="preserve" font-family="Gotham-Book" font-size="25.0" fill="#52575F" transform="matrix(1.00, 0.00, -0.00, -1.00, 528.6, 549.0)"> </text><text xml:space="preserve" font-family="Gotham-Book" font-size="25.0" fill="#52575F" transform="matrix(1.00, 0.00, -0.00, -1.00, 76.0, 513.0)">c</text><text xml:space="preserve" font-family="Gotham-Book" font-size="25.0" fill="#52575F" transform="matrix(1.00, 0.00, -0.00, -1.00, 90.3, 513.0)">o</text><text xml:space="preserve" font-family="Gotham-Book" font-size="25.0" fill="#52575F" transform="matrix(1.00, 0.00, -0.00, -1.00, 106.4, 513.0)">n</text><text xml:space="preserve" font-family="Gotham-Book" font-size="25.0" fill="#52575F" transform="matrix(1.00, 0.00, -0.00, -1.00, 121.8, 513.0)">t</text><text xml:space="preserve" font-family="Gotham-Book" font-size="25.0" fill="#52575F" transform="matrix(1.00, 0.00, -0.00, -1.00, 131.9, 513.0)">e</text><text xml:space="preserve" font-family="Gotham-Book" font-size="25.0" fill="#52575F" transform="matrix(1.00, 0.00, -0.00, -1.00, 146.7, 513.0)">n</text><text xml:space="preserve" font-family="Gotham-Book" font-size="25.0" fill="#52575F" transform="matrix(1.00, 0.00, -0.00, -1.00, 162.1, 513.0)">t</text><text xml:space="preserve" font-family="Gotham-Book" font-size="25.0" fill="#52575F" transform="matrix(1.00, 0.00, -0.00, -1.00, 172.2, 513.0)">,</text><text xml:space="preserve" font-family="Gotham-Book" font-size="25.0" fill="#52575F" transform="matrix(1.00, 0.00, -0.00, -1.00, 178.4, 513.0)"> </text><text xml:space="preserve" font-family="Gotham-Book" font-size="25.0" fill="#52575F" transform="matrix(1.00, 0.00, -0.00, -1.00, 185.9, 513.0)">n</text><text xml:space="preserve" font-family="Gotham-Book" font-size="25.0" fill="#52575F" transform="matrix(1.00, 0.00, -0.00, -1.00, 201.3, 513.0)">e</text><text xml:space="preserve" font-family="Gotham-Book" font-size="25.0" fill="#52575F" transform="matrix(1.00, 0.00, -0.00, -1.00, 216.1, 513.0)">w</text><text xml:space="preserve" font-family="Gotham-Book" font-size="25.0" fill="#52575F" transform="matrix(1.00, 0.00, -0.00, -1.00, 237.6, 513.0)">s</text><text xml:space="preserve" font-family="Gotham-Book" font-size="25.0" fill="#52575F" transform="matrix(1.00, 0.00, -0.00, -1.00, 250.0, 513.0)"> </text><text xml:space="preserve" font-family="Gotham-Book" font-size="25.0" fill="#52575F" transform="matrix(1.00, 0.00, -0.00, -1.00, 257.5, 513.0)">a</text><text xml:space="preserve" font-family="Gotham-Book" font-size="25.0" fill="#52575F" transform="matrix(1.00, 0.00, -0.00, -1.00, 272.0, 513.0)">n</text><text xml:space="preserve" font-family="Gotham-Book" font-size="25.0" fill="#52575F" transform="matrix(1.00, 0.00, -0.00, -1.00, 287.4, 513.0)">d</text><text xml:space="preserve" font-family="Gotham-Book" font-size="25.0" fill="#52575F" transform="matrix(1.00, 0.00, -0.00, -1.00, 304.0, 513.0)"> </text><text xml:space="preserve" font-family="Gotham-Book" font-size="25.0" fill="#52575F" transform="matrix(1.00, 0.00, -0.00, -1.00, 311.5, 513.0)">a</text><text xml:space="preserve" font-family="Gotham-Book" font-size="25.0" fill="#52575F" transform="matrix(1.00, 0.00, -0.00, -1.00, 326.0, 513.0)"> </text><text xml:space="preserve" font-family="Gotham-Book" font-size="25.0" fill="#52575F" transform="matrix(1.00, 0.00, -0.00, -1.00, 333.5, 513.0)">l</text><text xml:space="preserve" font-family="Gotham-Book" font-size="25.0" fill="#52575F" transform="matrix(1.00, 0.00, -0.00, -1.00, 340.1, 513.0)">i</text><text xml:space="preserve" font-family="Gotham-Book" font-size="25.0" fill="#52575F" transform="matrix(1.00, 0.00, -0.00, -1.00, 346.6, 513.0)">s</text><text xml:space="preserve" font-family="Gotham-Book" font-size="25.0" fill="#52575F" transform="matrix(1.00, 0.00, -0.00, -1.00, 359.1, 513.0)">t</text><text xml:space="preserve" font-family="Gotham-Book" font-size="25.0" fill="#52575F" transform="matrix(1.00, 0.00, -0.00, -1.00, 369.2, 513.0)"> </text><text xml:space="preserve" font-family="Gotham-Book" font-size="25.0" fill="#52575F" transform="matrix(1.00, 0.00, -0.00, -1.00, 376.7, 513.0)">o</text><text xml:space="preserve" font-family="Gotham-Book" font-size="25.0" fill="#52575F" transform="matrix(1.00, 0.00, -0.00, -1.00, 392.8, 513.0)">f</text><text xml:space="preserve" font-family="Gotham-Book" font-size="25.0" fill="#52575F" transform="matrix(1.00, 0.00, -0.00, -1.00, 402.0, 513.0)"> </text><text xml:space="preserve" font-family="Gotham-Book" font-size="25.0" fill="#52575F" transform="matrix(1.00, 0.00, -0.00, -1.00, 409.5, 513.0)">p</text><text xml:space="preserve" font-family="Gotham-Book" font-size="25.0" fill="#52575F" transform="matrix(1.00, 0.00, -0.00, -1.00, 426.1, 513.0)">r</text><text xml:space="preserve" font-family="Gotham-Book" font-size="25.0" fill="#52575F" transform="matrix(1.00, 0.00, -0.00, -1.00, 436.2, 513.0)">o</text><text xml:space="preserve" font-family="Gotham-Book" font-size="25.0" fill="#52575F" transform="matrix(1.00, 0.00, -0.00, -1.00, 452.4, 513.0)">g</text><text xml:space="preserve" font-family="Gotham-Book" font-size="25.0" fill="#52575F" transform="matrix(1.00, 0.00, -0.00, -1.00, 469.0, 513.0)">r</text><text xml:space="preserve" font-family="Gotham-Book" font-size="25.0" fill="#52575F" transform="matrix(1.00, 0.00, -0.00, -1.00, 479.1, 513.0)">a</text><text xml:space="preserve" font-family="Gotham-Book" font-size="25.0" fill="#52575F" transform="matrix(1.00, 0.00, -0.00, -1.00, 493.6, 513.0)">m</text><text xml:space="preserve" font-family="Gotham-Book" font-size="25.0" fill="#52575F" transform="matrix(1.00, 0.00, -0.00, -1.00, 517.4, 513.0)">s</text><text xml:space="preserve" font-family="Gotham-Book" font-size="25.0" fill="#52575F" transform="matrix(1.00, 0.00, -0.00, -1.00, 529.8, 513.0)">.</text></g></svg>