<?xml version="1.0" encoding="UTF-8" standalone="no"?><svg xmlns="http://www.w3.org/2000/svg" xmlns:xlink="http://www.w3.org/1999/xlink" clip-rule="evenodd" stroke-miterlimit="4.00" viewBox="0 0 1920 1080"><desc>SVG generated by Keynote</desc><defs></defs><g transform="matrix(1.00, 0.00, -0.00, -1.00, 0.0, 1080.0)"><path d="M 0.0 1080.0 L 1920.0 1080.0 L 1920.0 0.0 L 0.0 0.0 Z M 0.0 1080.0 " fill="#D8DAD3"></path><text xml:space="preserve" font-family="Gotham-Black" font-weight="bold" font-size="52.0" fill="#52575F" transform="matrix(1.00, 0.00, -0.00, -1.00, 384.0, 610.0)">A</text><text xml:space="preserve" font-family="Gotham-Black" font-weight="bold" font-size="52.0" fill="#52575F" transform="matrix(1.00, 0.00, -0.00, -1.00, 425.3, 610.0)"> </text><text xml:space="preserve" font-family="Gotham-Black" font-weight="bold" font-size="52.0" fill="#52575F" transform="matrix(1.00, 0.00, -0.00, -1.00, 439.7, 610.0)">f</text><text xml:space="preserve" font-family="Gotham-Black" font-weight="bold" font-size="52.0" fill="#52575F" transform="matrix(1.00, 0.00, -0.00, -1.00, 460.8, 610.0)">r</text><text xml:space="preserve" font-family="Gotham-Black" font-weight="bold" font-size="52.0" fill="#52575F" transform="matrix(1.00, 0.00, -0.00, -1.00, 483.0, 610.0)">a</text><text xml:space="preserve" font-family="Gotham-Black" font-weight="bold" font-size="52.0" fill="#52575F" transform="matrix(1.00, 0.00, -0.00, -1.00, 514.2, 610.0)">m</text><text xml:space="preserve" font-family="Gotham-Black" font-weight="bold" font-size="52.0" fill="#52575F" transform="matrix(1.00, 0.00, -0.00, -1.00, 564.6, 610.0)">e</text><text xml:space="preserve" font-family="Gotham-Black" font-weight="bold" font-size="52.0" fill="#52575F" transform="matrix(1.00, 0.00, -0.00, -1.00, 596.1, 610.0)">w</text><text xml:space="preserve" font-family="Gotham-Black" font-weight="bold" font-size="52.0" fill="#52575F" transform="matrix(1.00, 0.00, -0.00, -1.00, 640.9, 610.0)">o</text><text xml:space="preserve" font-family="Gotham-Black" font-weight="bold" font-size="52.0" fill="#52575F" transform="matrix(1.00, 0.00, -0.00, -1.00, 675.0, 610.0)">r</text><text xml:space="preserve" font-family="Gotham-Black" font-weight="bold" font-size="52.0" fill="#52575F" transform="matrix(1.00, 0.00, -0.00, -1.00, 697.2, 610.0)">k</text><text xml:space="preserve" font-family="Gotham-Black" font-weight="bold" font-size="52.0" fill="#52575F" transform="matrix(1.00, 0.00, -0.00, -1.00, 728.6, 610.0)"> </text><text xml:space="preserve" font-family="Gotham-Black" font-weight="bold" font-size="52.0" fill="#52575F" transform="matrix(1.00, 0.00, -0.00, -1.00, 743.0, 610.0)">o</text><text xml:space="preserve" font-family="Gotham-Black" font-weight="bold" font-size="52.0" fill="#52575F" transform="matrix(1.00, 0.00, -0.00, -1.00, 777.1, 610.0)">r</text><text xml:space="preserve" font-family="Gotham-Black" font-weight="bold" font-size="52.0" fill="#52575F" transform="matrix(1.00, 0.00, -0.00, -1.00, 799.4, 610.0)"> </text><text xml:space="preserve" font-family="Gotham-Black" font-weight="bold" font-size="52.0" fill="#52575F" transform="matrix(1.00, 0.00, -0.00, -1.00, 813.8, 610.0)">u</text><text xml:space="preserve" font-family="Gotham-Black" font-weight="bold" font-size="52.0" fill="#52575F" transform="matrix(1.00, 0.00, -0.00, -1.00, 846.7, 610.0)">t</text><text xml:space="preserve" font-family="Gotham-Black" font-weight="bold" font-size="52.0" fill="#52575F" transform="matrix(1.00, 0.00, -0.00, -1.00, 869.2, 610.0)">i</text><text xml:space="preserve" font-family="Gotham-Black" font-weight="bold" font-size="52.0" fill="#52575F" transform="matrix(1.00, 0.00, -0.00, -1.00, 884.8, 610.0)">l</text><text xml:space="preserve" font-family="Gotham-Black" font-weight="bold" font-size="52.0" fill="#52575F" transform="matrix(1.00, 0.00, -0.00, -1.00, 900.4, 610.0)">i</text><text xml:space="preserve" font-family="Gotham-Black" font-weight="bold" font-size="52.0" fill="#52575F" transform="matrix(1.00, 0.00, -0.00, -1.00, 916.0, 610.0)">t</text><text xml:space="preserve" font-family="Gotham-Black" font-weight="bold" font-size="52.0" fill="#52575F" transform="matrix(1.00, 0.00, -0.00, -1.00, 938.4, 610.0)">y</text><text xml:space="preserve" font-family="Gotham-Black" font-weight="bold" font-size="52.0" fill="#52575F" transform="matrix(1.00, 0.00, -0.00, -1.00, 970.9, 610.0)"> </text><text xml:space="preserve" font-family="Gotham-Black" font-weight="bold" font-size="52.0" fill="#52575F" transform="matrix(1.00, 0.00, -0.00, -1.00, 985.3, 610.0)">t</text><text xml:space="preserve" font-family="Gotham-Black" font-weight="bold" font-size="52.0" fill="#52575F" transform="matrix(1.00, 0.00, -0.00, -1.00, 1007.7, 610.0)">h</text><text xml:space="preserve" font-family="Gotham-Black" font-weight="bold" font-size="52.0" fill="#52575F" transform="matrix(1.00, 0.00, -0.00, -1.00, 1040.7, 610.0)">a</text><text xml:space="preserve" font-family="Gotham-Black" font-weight="bold" font-size="52.0" fill="#52575F" transform="matrix(1.00, 0.00, -0.00, -1.00, 1071.9, 610.0)">t</text><text xml:space="preserve" font-family="Gotham-Black" font-weight="bold" font-size="52.0" fill="#52575F" transform="matrix(1.00, 0.00, -0.00, -1.00, 1094.3, 610.0)"> </text><text xml:space="preserve" font-family="Gotham-Black" font-weight="bold" font-size="52.0" fill="#52575F" transform="matrix(1.00, 0.00, -0.00, -1.00, 1108.7, 610.0)">g</text><text xml:space="preserve" font-family="Gotham-Black" font-weight="bold" font-size="52.0" fill="#52575F" transform="matrix(1.00, 0.00, -0.00, -1.00, 1143.8, 610.0)">e</text><text xml:space="preserve" font-family="Gotham-Black" font-weight="bold" font-size="52.0" fill="#52575F" transform="matrix(1.00, 0.00, -0.00, -1.00, 1175.3, 610.0)">n</text><text xml:space="preserve" font-family="Gotham-Black" font-weight="bold" font-size="52.0" fill="#52575F" transform="matrix(1.00, 0.00, -0.00, -1.00, 1208.3, 610.0)">e</text><text xml:space="preserve" font-family="Gotham-Black" font-weight="bold" font-size="52.0" fill="#52575F" transform="matrix(1.00, 0.00, -0.00, -1.00, 1239.7, 610.0)">r</text><text xml:space="preserve" font-family="Gotham-Black" font-weight="bold" font-size="52.0" fill="#52575F" transform="matrix(1.00, 0.00, -0.00, -1.00, 1262.0, 610.0)">a</text><text xml:space="preserve" font-family="Gotham-Black" font-weight="bold" font-size="52.0" fill="#52575F" transform="matrix(1.00, 0.00, -0.00, -1.00, 1293.1, 610.0)">t</text><text xml:space="preserve" font-family="Gotham-Black" font-weight="bold" font-size="52.0" fill="#52575F" transform="matrix(1.00, 0.00, -0.00, -1.00, 1315.5, 610.0)">e</text><text xml:space="preserve" font-family="Gotham-Black" font-weight="bold" font-size="52.0" fill="#52575F" transform="matrix(1.00, 0.00, -0.00, -1.00, 1347.0, 610.0)">s</text><text xml:space="preserve" font-family="Gotham-Black" font-weight="bold" font-size="52.0" fill="#52575F" transform="matrix(1.00, 0.00, -0.00, -1.00, 1373.7, 610.0)"> </text><text xml:space="preserve" font-family="Gotham-Black" font-weight="bold" font-size="52.0" fill="#52575F" transform="matrix(1.00, 0.00, -0.00, -1.00, 1388.1, 610.0)">s</text><text xml:space="preserve" font-family="Gotham-Black" font-weight="bold" font-size="52.0" fill="#52575F" transform="matrix(1.00, 0.00, -0.00, -1.00, 1414.8, 610.0)">t</text><text xml:space="preserve" font-family="Gotham-Black" font-weight="bold" font-size="52.0" fill="#52575F" transform="matrix(1.00, 0.00, -0.00, -1.00, 1437.3, 610.0)">a</text><text xml:space="preserve" font-family="Gotham-Black" font-weight="bold" font-size="52.0" fill="#52575F" transform="matrix(1.00, 0.00, -0.00, -1.00, 1468.4, 610.0)">t</text><text xml:space="preserve" font-family="Gotham-Black" font-weight="bold" font-size="52.0" fill="#52575F" transform="matrix(1.00, 0.00, -0.00, -1.00, 1490.8, 610.0)">i</text><text xml:space="preserve" font-family="Gotham-Black" font-weight="bold" font-size="52.0" fill="#52575F" transform="matrix(1.00, 0.00, -0.00, -1.00, 1506.4, 610.0)">c</text><text xml:space="preserve" font-family="Gotham-Black" font-weight="bold" font-size="52.0" fill="#52575F" transform="matrix(1.00, 0.00, -0.00, -1.00, 1536.0, 610.0)"> </text><text xml:space="preserve" font-family="Gotham-Black" font-weight="bold" font-size="52.0" fill="#52575F" transform="matrix(1.00, 0.00, -0.00, -1.00, 1550.4, 610.0)"> </text><text xml:space="preserve" font-family="Gotham-Black" font-weight="bold" font-size="52.0" fill="#52575F" transform="matrix(1.00, 0.00, -0.00, -1.00, 291.0, 548.0)">H</text><text xml:space="preserve" font-family="Gotham-Black" font-weight="bold" font-size="52.0" fill="#52575F" transform="matrix(1.00, 0.00, -0.00, -1.00, 330.6, 548.0)">T</text><text xml:space="preserve" font-family="Gotham-Black" font-weight="bold" font-size="52.0" fill="#52575F" transform="matrix(1.00, 0.00, -0.00, -1.00, 364.9, 548.0)">M</text><text xml:space="preserve" font-family="Gotham-Black" font-weight="bold" font-size="52.0" fill="#52575F" transform="matrix(1.00, 0.00, -0.00, -1.00, 410.0, 548.0)">L</text><text xml:space="preserve" font-family="Gotham-Black" font-weight="bold" font-size="52.0" fill="#52575F" transform="matrix(1.00, 0.00, -0.00, -1.00, 442.1, 548.0)"> </text><text xml:space="preserve" font-family="Gotham-Black" font-weight="bold" font-size="52.0" fill="#52575F" transform="matrix(1.00, 0.00, -0.00, -1.00, 456.5, 548.0)">a</text><text xml:space="preserve" font-family="Gotham-Black" font-weight="bold" font-size="52.0" fill="#52575F" transform="matrix(1.00, 0.00, -0.00, -1.00, 487.6, 548.0)">n</text><text xml:space="preserve" font-family="Gotham-Black" font-weight="bold" font-size="52.0" fill="#52575F" transform="matrix(1.00, 0.00, -0.00, -1.00, 520.6, 548.0)">d</text><text xml:space="preserve" font-family="Gotham-Black" font-weight="bold" font-size="52.0" fill="#52575F" transform="matrix(1.00, 0.00, -0.00, -1.00, 555.7, 548.0)"> </text><text xml:space="preserve" font-family="Gotham-Black" font-weight="bold" font-size="52.0" fill="#52575F" transform="matrix(1.00, 0.00, -0.00, -1.00, 570.1, 548.0)">C</text><text xml:space="preserve" font-family="Gotham-Black" font-weight="bold" font-size="52.0" fill="#52575F" transform="matrix(1.00, 0.00, -0.00, -1.00, 608.1, 548.0)">S</text><text xml:space="preserve" font-family="Gotham-Black" font-weight="bold" font-size="52.0" fill="#52575F" transform="matrix(1.00, 0.00, -0.00, -1.00, 642.0, 548.0)">S</text><text xml:space="preserve" font-family="Gotham-Black" font-weight="bold" font-size="52.0" fill="#52575F" transform="matrix(1.00, 0.00, -0.00, -1.00, 675.9, 548.0)">.</text><text xml:space="preserve" font-family="Gotham-Black" font-weight="bold" font-size="52.0" fill="#52575F" transform="matrix(1.00, 0.00, -0.00, -1.00, 690.7, 548.0)"> </text><text xml:space="preserve" font-family="Gotham-Black" font-weight="bold" font-size="52.0" fill="#52575F" transform="matrix(1.00, 0.00, -0.00, -1.00, 705.1, 548.0)">N</text><text xml:space="preserve" font-family="Gotham-Black" font-weight="bold" font-size="52.0" fill="#52575F" transform="matrix(1.00, 0.00, -0.00, -1.00, 745.9, 548.0)">o</text><text xml:space="preserve" font-family="Gotham-Black" font-weight="bold" font-size="52.0" fill="#52575F" transform="matrix(1.00, 0.00, -0.00, -1.00, 780.0, 548.0)"> </text><text xml:space="preserve" font-family="Gotham-Black" font-weight="bold" font-size="52.0" fill="#52575F" transform="matrix(1.00, 0.00, -0.00, -1.00, 794.4, 548.0)">d</text><text xml:space="preserve" font-family="Gotham-Black" font-weight="bold" font-size="52.0" fill="#52575F" transform="matrix(1.00, 0.00, -0.00, -1.00, 829.6, 548.0)">a</text><text xml:space="preserve" font-family="Gotham-Black" font-weight="bold" font-size="52.0" fill="#52575F" transform="matrix(1.00, 0.00, -0.00, -1.00, 860.7, 548.0)">t</text><text xml:space="preserve" font-family="Gotham-Black" font-weight="bold" font-size="52.0" fill="#52575F" transform="matrix(1.00, 0.00, -0.00, -1.00, 883.1, 548.0)">a</text><text xml:space="preserve" font-family="Gotham-Black" font-weight="bold" font-size="52.0" fill="#52575F" transform="matrix(1.00, 0.00, -0.00, -1.00, 914.3, 548.0)">b</text><text xml:space="preserve" font-family="Gotham-Black" font-weight="bold" font-size="52.0" fill="#52575F" transform="matrix(1.00, 0.00, -0.00, -1.00, 949.4, 548.0)">a</text><text xml:space="preserve" font-family="Gotham-Black" font-weight="bold" font-size="52.0" fill="#52575F" transform="matrix(1.00, 0.00, -0.00, -1.00, 980.6, 548.0)">s</text><text xml:space="preserve" font-family="Gotham-Black" font-weight="bold" font-size="52.0" fill="#52575F" transform="matrix(1.00, 0.00, -0.00, -1.00, 1007.3, 548.0)">e</text><text xml:space="preserve" font-family="Gotham-Black" font-weight="bold" font-size="52.0" fill="#52575F" transform="matrix(1.00, 0.00, -0.00, -1.00, 1038.8, 548.0)"> </text><text xml:space="preserve" font-family="Gotham-Black" font-weight="bold" font-size="52.0" fill="#52575F" transform="matrix(1.00, 0.00, -0.00, -1.00, 1053.2, 548.0)">o</text><text xml:space="preserve" font-family="Gotham-Black" font-weight="bold" font-size="52.0" fill="#52575F" transform="matrix(1.00, 0.00, -0.00, -1.00, 1087.3, 548.0)">r</text><text xml:space="preserve" font-family="Gotham-Black" font-weight="bold" font-size="52.0" fill="#52575F" transform="matrix(1.00, 0.00, -0.00, -1.00, 1109.5, 548.0)"> </text><text xml:space="preserve" font-family="Gotham-Black" font-weight="bold" font-size="52.0" fill="#52575F" transform="matrix(1.00, 0.00, -0.00, -1.00, 1123.9, 548.0)">s</text><text xml:space="preserve" font-family="Gotham-Black" font-weight="bold" font-size="52.0" fill="#52575F" transform="matrix(1.00, 0.00, -0.00, -1.00, 1150.7, 548.0)">e</text><text xml:space="preserve" font-family="Gotham-Black" font-weight="bold" font-size="52.0" fill="#52575F" transform="matrix(1.00, 0.00, -0.00, -1.00, 1182.1, 548.0)">r</text><text xml:space="preserve" font-family="Gotham-Black" font-weight="bold" font-size="52.0" fill="#52575F" transform="matrix(1.00, 0.00, -0.00, -1.00, 1204.4, 548.0)">v</text><text xml:space="preserve" font-family="Gotham-Black" font-weight="bold" font-size="52.0" fill="#52575F" transform="matrix(1.00, 0.00, -0.00, -1.00, 1236.9, 548.0)">e</text><text xml:space="preserve" font-family="Gotham-Black" font-weight="bold" font-size="52.0" fill="#52575F" transform="matrix(1.00, 0.00, -0.00, -1.00, 1268.3, 548.0)">r</text><text xml:space="preserve" font-family="Gotham-Black" font-weight="bold" font-size="52.0" fill="#52575F" transform="matrix(1.00, 0.00, -0.00, -1.00, 1290.6, 548.0)"> </text><text xml:space="preserve" font-family="Gotham-Black" font-weight="bold" font-size="52.0" fill="#52575F" transform="matrix(1.00, 0.00, -0.00, -1.00, 1305.0, 548.0)">i</text><text xml:space="preserve" font-family="Gotham-Black" font-weight="bold" font-size="52.0" fill="#52575F" transform="matrix(1.00, 0.00, -0.00, -1.00, 1320.6, 548.0)">s</text><text xml:space="preserve" font-family="Gotham-Black" font-weight="bold" font-size="52.0" fill="#52575F" transform="matrix(1.00, 0.00, -0.00, -1.00, 1347.3, 548.0)"> </text><text xml:space="preserve" font-family="Gotham-Black" font-weight="bold" font-size="52.0" fill="#52575F" transform="matrix(1.00, 0.00, -0.00, -1.00, 1361.7, 548.0)">n</text><text xml:space="preserve" font-family="Gotham-Black" font-weight="bold" font-size="52.0" fill="#52575F" transform="matrix(1.00, 0.00, -0.00, -1.00, 1394.7, 548.0)">e</text><text xml:space="preserve" font-family="Gotham-Black" font-weight="bold" font-size="52.0" fill="#52575F" transform="matrix(1.00, 0.00, -0.00, -1.00, 1426.2, 548.0)">e</text><text xml:space="preserve" font-family="Gotham-Black" font-weight="bold" font-size="52.0" fill="#52575F" transform="matrix(1.00, 0.00, -0.00, -1.00, 1457.6, 548.0)">d</text><text xml:space="preserve" font-family="Gotham-Black" font-weight="bold" font-size="52.0" fill="#52575F" transform="matrix(1.00, 0.00, -0.00, -1.00, 1492.8, 548.0)">e</text><text xml:space="preserve" font-family="Gotham-Black" font-weight="bold" font-size="52.0" fill="#52575F" transform="matrix(1.00, 0.00, -0.00, -1.00, 1524.2, 548.0)">d</text><text xml:space="preserve" font-family="Gotham-Black" font-weight="bold" font-size="52.0" fill="#52575F" transform="matrix(1.00, 0.00, -0.00, -1.00, 1559.4, 548.0)"> </text><text xml:space="preserve" font-family="Gotham-Black" font-weight="bold" font-size="52.0" fill="#52575F" transform="matrix(1.00, 0.00, -0.00, -1.00, 1573.8, 548.0)">t</text><text xml:space="preserve" font-family="Gotham-Black" font-weight="bold" font-size="52.0" fill="#52575F" transform="matrix(1.00, 0.00, -0.00, -1.00, 1596.2, 548.0)">o</text><text xml:space="preserve" font-family="Gotham-Black" font-weight="bold" font-size="52.0" fill="#52575F" transform="matrix(1.00, 0.00, -0.00, -1.00, 1630.3, 548.0)"> </text><text xml:space="preserve" font-family="Gotham-Black" font-weight="bold" font-size="52.0" fill="#52575F" transform="matrix(1.00, 0.00, -0.00, -1.00, 1644.7, 548.0)"> </text><text xml:space="preserve" font-family="Gotham-Black" font-weight="bold" font-size="52.0" fill="#52575F" transform="matrix(1.00, 0.00, -0.00, -1.00, 555.0, 486.0)">i</text><text xml:space="preserve" font-family="Gotham-Black" font-weight="bold" font-size="52.0" fill="#52575F" transform="matrix(1.00, 0.00, -0.00, -1.00, 570.6, 486.0)">n</text><text xml:space="preserve" font-family="Gotham-Black" font-weight="bold" font-size="52.0" fill="#52575F" transform="matrix(1.00, 0.00, -0.00, -1.00, 603.6, 486.0)">t</text><text xml:space="preserve" font-family="Gotham-Black" font-weight="bold" font-size="52.0" fill="#52575F" transform="matrix(1.00, 0.00, -0.00, -1.00, 626.0, 486.0)">e</text><text xml:space="preserve" font-family="Gotham-Black" font-weight="bold" font-size="52.0" fill="#52575F" transform="matrix(1.00, 0.00, -0.00, -1.00, 657.4, 486.0)">r</text><text xml:space="preserve" font-family="Gotham-Black" font-weight="bold" font-size="52.0" fill="#52575F" transform="matrix(1.00, 0.00, -0.00, -1.00, 679.7, 486.0)">a</text><text xml:space="preserve" font-family="Gotham-Black" font-weight="bold" font-size="52.0" fill="#52575F" transform="matrix(1.00, 0.00, -0.00, -1.00, 710.8, 486.0)">c</text><text xml:space="preserve" font-family="Gotham-Black" font-weight="bold" font-size="52.0" fill="#52575F" transform="matrix(1.00, 0.00, -0.00, -1.00, 740.4, 486.0)">t</text><text xml:space="preserve" font-family="Gotham-Black" font-weight="bold" font-size="52.0" fill="#52575F" transform="matrix(1.00, 0.00, -0.00, -1.00, 762.8, 486.0)"> </text><text xml:space="preserve" font-family="Gotham-Black" font-weight="bold" font-size="52.0" fill="#52575F" transform="matrix(1.00, 0.00, -0.00, -1.00, 777.2, 486.0)">w</text><text xml:space="preserve" font-family="Gotham-Black" font-weight="bold" font-size="52.0" fill="#52575F" transform="matrix(1.00, 0.00, -0.00, -1.00, 822.0, 486.0)">i</text><text xml:space="preserve" font-family="Gotham-Black" font-weight="bold" font-size="52.0" fill="#52575F" transform="matrix(1.00, 0.00, -0.00, -1.00, 837.6, 486.0)">t</text><text xml:space="preserve" font-family="Gotham-Black" font-weight="bold" font-size="52.0" fill="#52575F" transform="matrix(1.00, 0.00, -0.00, -1.00, 860.0, 486.0)">h</text><text xml:space="preserve" font-family="Gotham-Black" font-weight="bold" font-size="52.0" fill="#52575F" transform="matrix(1.00, 0.00, -0.00, -1.00, 893.0, 486.0)"> </text><text xml:space="preserve" font-family="Gotham-Black" font-weight="bold" font-size="52.0" fill="#52575F" transform="matrix(1.00, 0.00, -0.00, -1.00, 907.4, 486.0)">t</text><text xml:space="preserve" font-family="Gotham-Black" font-weight="bold" font-size="52.0" fill="#52575F" transform="matrix(1.00, 0.00, -0.00, -1.00, 929.8, 486.0)">h</text><text xml:space="preserve" font-family="Gotham-Black" font-weight="bold" font-size="52.0" fill="#52575F" transform="matrix(1.00, 0.00, -0.00, -1.00, 962.8, 486.0)">e</text><text xml:space="preserve" font-family="Gotham-Black" font-weight="bold" font-size="52.0" fill="#52575F" transform="matrix(1.00, 0.00, -0.00, -1.00, 994.2, 486.0)"> </text><text xml:space="preserve" font-family="Gotham-Black" font-weight="bold" font-size="52.0" fill="#52575F" transform="matrix(1.00, 0.00, -0.00, -1.00, 1008.6, 486.0)">f</text><text xml:space="preserve" font-family="Gotham-Black" font-weight="bold" font-size="52.0" fill="#52575F" transform="matrix(1.00, 0.00, -0.00, -1.00, 1029.7, 486.0)">i</text><text xml:space="preserve" font-family="Gotham-Black" font-weight="bold" font-size="52.0" fill="#52575F" transform="matrix(1.00, 0.00, -0.00, -1.00, 1045.3, 486.0)">n</text><text xml:space="preserve" font-family="Gotham-Black" font-weight="bold" font-size="52.0" fill="#52575F" transform="matrix(1.00, 0.00, -0.00, -1.00, 1078.2, 486.0)">a</text><text xml:space="preserve" font-family="Gotham-Black" font-weight="bold" font-size="52.0" fill="#52575F" transform="matrix(1.00, 0.00, -0.00, -1.00, 1109.4, 486.0)">l</text><text xml:space="preserve" font-family="Gotham-Black" font-weight="bold" font-size="52.0" fill="#52575F" transform="matrix(1.00, 0.00, -0.00, -1.00, 1125.0, 486.0)"> </text><text xml:space="preserve" font-family="Gotham-Black" font-weight="bold" font-size="52.0" fill="#52575F" transform="matrix(1.00, 0.00, -0.00, -1.00, 1139.4, 486.0)">p</text><text xml:space="preserve" font-family="Gotham-Black" font-weight="bold" font-size="52.0" fill="#52575F" transform="matrix(1.00, 0.00, -0.00, -1.00, 1174.5, 486.0)">r</text><text xml:space="preserve" font-family="Gotham-Black" font-weight="bold" font-size="52.0" fill="#52575F" transform="matrix(1.00, 0.00, -0.00, -1.00, 1196.8, 486.0)">o</text><text xml:space="preserve" font-family="Gotham-Black" font-weight="bold" font-size="52.0" fill="#52575F" transform="matrix(1.00, 0.00, -0.00, -1.00, 1230.9, 486.0)">d</text><text xml:space="preserve" font-family="Gotham-Black" font-weight="bold" font-size="52.0" fill="#52575F" transform="matrix(1.00, 0.00, -0.00, -1.00, 1266.0, 486.0)">u</text><text xml:space="preserve" font-family="Gotham-Black" font-weight="bold" font-size="52.0" fill="#52575F" transform="matrix(1.00, 0.00, -0.00, -1.00, 1299.0, 486.0)">c</text><text xml:space="preserve" font-family="Gotham-Black" font-weight="bold" font-size="52.0" fill="#52575F" transform="matrix(1.00, 0.00, -0.00, -1.00, 1328.6, 486.0)">t</text><text xml:space="preserve" font-family="Gotham-Black" font-weight="bold" font-size="52.0" fill="#52575F" transform="matrix(1.00, 0.00, -0.00, -1.00, 1351.0, 486.0)">.</text><text xml:space="preserve" font-family="Gotham-Black" font-weight="bold" font-size="52.0" fill="#52575F" transform="matrix(1.00, 0.00, -0.00, -1.00, 1365.8, 486.0)"> </text></g></svg>