<?xml version="1.0" encoding="UTF-8" standalone="no"?><svg xmlns="http://www.w3.org/2000/svg" xmlns:xlink="http://www.w3.org/1999/xlink" clip-rule="evenodd" stroke-miterlimit="4.00" viewBox="0 0 1920 1080"><desc>SVG generated by Keynote</desc><defs></defs><g transform="matrix(1.00, 0.00, -0.00, -1.00, 0.0, 1080.0)"><path d="M 0.0 1080.0 L 1920.0 1080.0 L 1920.0 0.0 L 0.0 0.0 Z M 0.0 1080.0 " fill="#FEFFFF"></path><g><clipPath id="clip-87"><path d="M 1796.0 1022.0 L 1862.0 1022.0 L 1862.0 956.0 L 1796.0 956.0 Z M 1796.4 1021.9 "></path></clipPath><g clip-path="url(#clip-87)"><g><clipPath id="clip-88"><path d="M 1796.0 1022.0 L 1862.0 1022.0 L 1862.0 956.0 L 1796.0 956.0 Z M 1796.0 1022.0 "></path></clipPath><g clip-path="url(#clip-88)"><g><clipPath id="clip-89"><path d="M 1796.0 956.0 L 1862.0 956.0 L 1862.0 1022.0 L 1796.0 1022.0 Z M 1796.0 956.0 "></path></clipPath><g clip-path="url(#clip-89)"><path d="M 1854.6 1011.8 L 1831.5 1011.8 L 1829.4 1007.7 L 1854.6 1007.7 C 1856.5 1007.7 1857.9 1006.1 1857.9 1004.2 L 1857.9 971.6 C 1857.9 969.7 1856.5 968.2 1854.6 968.2 L 1837.9 968.2 L 1835.6 964.1 L 1846.5 964.1 L 1852.7 956.0 L 1853.5 956.0 L 1852.8 964.1 L 1854.6 964.1 C 1858.7 964.1 1862.0 967.5 1862.0 971.6 L 1862.0 1004.2 C 1862.0 1008.3 1858.7 1011.8 1854.6 1011.8 " fill="#DADBDD"></path><path d="M 1816.7 969.1 C 1816.7 970.7 1815.4 972.0 1813.7 972.0 C 1812.1 972.0 1810.8 970.7 1810.8 969.1 C 1810.8 967.4 1812.1 966.1 1813.7 966.1 C 1815.4 966.1 1816.7 967.4 1816.7 969.1 " fill="#DADBDD"></path><path d="M 1812.1 962.8 C 1812.1 963.8 1811.3 964.7 1810.2 964.7 C 1809.1 964.7 1808.2 963.8 1808.2 962.8 C 1808.2 961.7 1809.1 960.8 1810.2 960.8 C 1811.3 960.8 1812.1 961.7 1812.1 962.8 " fill="#DADBDD"></path><path d="M 1830.1 1001.2 L 1817.4 1001.2 L 1817.4 998.4 L 1822.1 998.4 L 1822.1 982.4 L 1825.4 982.4 L 1825.4 998.4 L 1830.1 998.4 Z M 1830.1 1001.2 " fill="#F16D21"></path><path d="M 1837.5 1001.5 C 1841.9 1001.5 1843.5 997.9 1843.5 997.9 L 1841.0 996.6 C 1841.0 996.6 1840.0 998.7 1837.5 998.7 C 1835.4 998.7 1834.3 997.5 1834.3 996.3 C 1834.3 992.1 1844.1 994.8 1844.1 988.0 C 1844.1 985.0 1841.6 982.1 1837.4 982.1 C 1834.1 982.1 1831.6 984.6 1830.7 986.1 L 1833.6 987.6 C 1833.6 987.6 1835.2 985.2 1837.6 985.2 C 1839.5 985.2 1840.8 986.1 1840.8 987.8 C 1840.8 992.1 1831.0 989.2 1831.0 996.3 C 1831.0 999.4 1834.0 1001.5 1837.5 1001.5 " fill="#F16D21"></path><path d="M 1830.0 972.7 C 1825.6 972.7 1821.5 974.8 1819.0 978.4 L 1818.2 979.6 L 1816.8 979.2 C 1815.7 979.0 1814.6 978.8 1813.5 978.8 C 1806.1 978.8 1800.1 984.9 1800.1 992.3 C 1800.1 995.9 1801.4 999.2 1803.8 1001.7 C 1806.2 1004.2 1809.4 1005.7 1812.9 1005.9 L 1814.4 1005.9 L 1814.7 1007.4 C 1815.4 1010.3 1817.1 1013.0 1819.4 1014.9 C 1821.8 1016.8 1824.7 1017.9 1827.8 1017.9 C 1831.2 1017.9 1834.4 1016.5 1836.8 1014.4 L 1842.2 1014.4 C 1839.0 1018.9 1833.7 1022.0 1827.8 1022.0 C 1823.8 1022.0 1820.0 1020.6 1816.9 1018.1 C 1814.2 1016.0 1812.3 1013.1 1811.2 1009.9 C 1807.3 1009.3 1803.6 1007.5 1800.9 1004.6 C 1797.7 1001.3 1796.0 996.9 1796.0 992.3 C 1796.0 982.6 1803.8 974.7 1813.5 974.7 C 1814.5 974.7 1815.5 974.8 1816.5 975.0 C 1819.8 970.9 1824.7 968.6 1830.0 968.6 C 1835.5 968.6 1840.4 971.2 1843.6 975.2 L 1837.7 975.2 C 1835.5 973.5 1832.8 972.7 1830.0 972.7 " fill="#DADBDD"></path></g></g></g></g></g></g><image xlink:href="153783F6C161E78EC553F0533F5D0D61.png" width="2636.00" height="1544.00" transform="matrix(0.73, 0.00, -0.00, -0.73, -2.0, 1080.0)"></image></g></svg>